                        http://www.imdb.com/title/tt2344678/

Plot:
An honest temple priest takes on more than he can handle when he bears witness to a murder and gives evidence in a court of law against a powerful landlord in his village.


Info:


General
Unique ID : 240588048025289597195304333711207519579 (0xB4FF92959C004A0EAE775347F2FF555B)
Complete name : Himmatwala(2013) WEBrip ~SaNRiM~.mkv
Format : Matroska
Format version : Version 4 / Version 2
File size : 1.45 GiB
Duration : 2h 26mn
Overall bit rate : 1 414 Kbps
Encoded date : UTC 2013-06-21 04:12:23
Writing application : mkvmerge v6.2.0 ('Promised Land') built on Apr 28 2013 12:22:01
Writing library : libebml v1.3.0 + libmatroska v1.4.0


Video
ID : 1
Format : AVC
Format/Info : Advanced Video Codec
Format profile : High@L3.1
Format settings, CABAC : Yes
Format settings, ReFrames : 10 frames
Codec ID : V_MPEG4/ISO/AVC
Duration : 2h 26mn
Bit rate : 1 220 Kbps
Width : 720 pixels
Height : 304 pixels
Display aspect ratio : 2.35:1
Frame rate mode : Constant
Frame rate : 29.970 fps
Color space : YUV
Chroma subsampling : 4:2:0
Bit depth : 8 bits
Scan type : Progressive
Bits/(Pixel*Frame) : 0.186
Stream size : 1.22 GiB (84%)
Title : ~SaNRiM~
Writing library : x264 core 130 r2273 b3065e6
Encoding settings : cabac=1 / ref=10 / deblock=1:-2:-1 / analyse=0x3:0x113 / me=umh / subme=5 / psy=1 / psy_rd=1.00:0.00 / mixed_ref=1 / me_range=16 / chroma_me=1 / trellis=2 / 8x8dct=1 / cqm=0 / deadzone=21,11 / fast_pskip=1 / chroma_qp_offset=0 / threads=12 / lookahead_threads=2 / sliced_threads=0 / nr=0 / decimate=0 / interlaced=0 / bluray_compat=0 / constrained_intra=0 / bframes=16 / b_pyramid=2 / b_adapt=1 / b_bias=0 / direct=3 / weightb=1 / open_gop=0 / weightp=2 / keyint=300 / keyint_min=29 / scenecut=40 / intra_refresh=0 / rc_lookahead=40 / rc=2pass / mbtree=1 / bitrate=1220 / ratetol=1.0 / qcomp=0.60 / qpmin=10 / qpmax=51 / qpstep=4 / cplxblur=20.0 / qblur=0.5 / ip_ratio=1.40 / aq=2:1.00
Language : English
Default : Yes
Forced : No


Audio
ID : 2
Format : AC-3
Format/Info : Audio Coding 3
Mode extension : CM (complete main)
Format settings, Endianness : Big
Codec ID : A_AC3
Duration : 2h 26mn
Bit rate mode : Constant
Bit rate : 192 Kbps
Channel(s) : 2 channels
Channel positions : Front: L R
Sampling rate : 48.0 KHz
Bit depth : 16 bits
Compression mode : Lossy
Delay relative to video : 24ms
Stream size : 201 MiB (14%)
Title : ~SaNRiM~
Language : Hindi
Default : Yes
Forced : No

*NO SAMPLE INCLUDED

Screen shots: 
http://cdn.piczend.com/images/LanGP2Hs/1371788754_vlcsnap-2013-06-21-09h53m38s145.png 
http://cdn.piczend.com/images/xDBip8lg/1371788772_vlcsnap-2013-06-21-09h53m44s208.png 
http://cdn.piczend.com/images/321e3I3p/1371788776_vlcsnap-2013-06-21-09h53m46s229.png 
http://cdn.piczend.com/images/c1qL8nHr/1371788779_vlcsnap-2013-06-21-09h53m48s250.png 
http://cdn.piczend.com/images/mTCuNMYH/1371788758_vlcsnap-2013-06-21-09h53m55s59.png 
http://cdn.piczend.com/images/AguVcwLx/1371788768_vlcsnap-2013-06-21-09h53m58s91.png 
http://cdn.piczend.com/images/rC1v9S4y/1371788786_vlcsnap-2013-06-21-09h54m00s111.png 
http://cdn.piczend.com/images/vZdz7VGG/1371788770_vlcsnap-2013-06-21-09h54m03s144.png 
http://cdn.piczend.com/images/CRY7oIy1/1371788783_vlcsnap-2013-06-21-09h54m08s193.png 
http://cdn.piczend.com/images/wHWk8xCG/1371788786_vlcsnap-2013-06-21-09h54m12s233.png 
http://cdn.piczend.com/images/sYdsqijS/1371788784_vlcsnap-2013-06-21-09h54m15s4.png 
http://cdn.piczend.com/images/qXS5TG5l/1371788774_vlcsnap-2013-06-21-09h54m19s48.png 
http://cdn.piczend.com/images/wvtesdnc/1371788788_vlcsnap-2013-06-21-09h54m22s78.png 
http://cdn.piczend.com/images/AmLGF3eQ/1371788782_vlcsnap-2013-06-21-09h54m25s102.png 
http://cdn.piczend.com/images/ASctgrM4/1371788791_vlcsnap-2013-06-21-09h54m31s163.png 
http://cdn.piczend.com/images/ZyvOXGDe/1371788783_vlcsnap-2013-06-21-09h54m34s193.png


                   If you like my work please comment
                       Any request? Just PM me
                    Please seed long after download
                      Thank you & enjoy the best
                              ~SaNRiM~ 